<svg width="32" height="32" viewBox="0 0 32 32" fill="none" xmlns="http://www.w3.org/2000/svg">
<path fill-rule="evenodd" clip-rule="evenodd" d="M8.35192 13.152C8.57692 12.9272 8.88192 12.801 9.19992 12.801C9.51792 12.801 9.82292 12.9272 10.0479 13.152L15.9999 19.104L21.9519 13.152C22.0618 13.0341 22.1943 12.9395 22.3415 12.8739C22.4887 12.8083 22.6476 12.773 22.8087 12.7702C22.9698 12.7674 23.1299 12.797 23.2793 12.8574C23.4287 12.9177 23.5644 13.0075 23.6784 13.1215C23.7923 13.2354 23.8822 13.3712 23.9425 13.5206C24.0029 13.67 24.0325 13.8301 24.0297 13.9912C24.0268 14.1523 23.9916 14.3112 23.926 14.4584C23.8604 14.6056 23.7658 14.7381 23.6479 14.848L16.8479 21.648C16.6229 21.8727 16.3179 21.9989 15.9999 21.9989C15.6819 21.9989 15.3769 21.8727 15.1519 21.648L8.35192 14.848C8.1272 14.623 8.00098 14.318 8.00098 14C8.00098 13.682 8.1272 13.377 8.35192 13.152Z" fill="black"/>
</svg>
