<svg width="17" height="17" viewBox="0 0 17 17" fill="none" xmlns="http://www.w3.org/2000/svg">
<path d="M2.1665 8.5C2.1665 5.51466 2.1665 4.02133 3.09384 3.094C4.02117 2.16666 5.51384 2.16666 8.49984 2.16666C11.4852 2.16666 12.9785 2.16666 13.9058 3.094C14.8332 4.02133 14.8332 5.514 14.8332 8.5C14.8332 11.4853 14.8332 12.9787 13.9058 13.906C12.9785 14.8333 11.4858 14.8333 8.49984 14.8333C5.5145 14.8333 4.02117 14.8333 3.09384 13.906C2.1665 12.9787 2.1665 11.486 2.1665 8.5Z" stroke="black" stroke-linecap="round" stroke-linejoin="round"/>
<path d="M8.49967 11.1667V5.83333M8.49967 11.1667C8.03301 11.1667 7.16101 9.83733 6.83301 9.5M8.49967 11.1667C8.96634 11.1667 9.83834 9.83733 10.1663 9.5" stroke="black" stroke-linecap="round" stroke-linejoin="round"/>
</svg>
