<svg width="17" height="17" viewBox="0 0 17 17" fill="none" xmlns="http://www.w3.org/2000/svg">
<g clip-path="url(#clip0_147_153)">
<path fill-rule="evenodd" clip-rule="evenodd" d="M7.5 5C7.5 5.13261 7.55268 5.25979 7.64645 5.35355C7.74021 5.44732 7.86739 5.5 8 5.5C8.13261 5.5 8.25979 5.44732 8.35355 5.35355C8.44732 5.25979 8.5 5.13261 8.5 5V4.5H9.5C9.76522 4.5 10.0196 4.39464 10.2071 4.20711C10.3946 4.01957 10.5 3.76522 10.5 3.5V1.5C10.5 1.23478 10.3946 0.98043 10.2071 0.792893C10.0196 0.605357 9.76522 0.5 9.5 0.5H6.5C6.23478 0.5 5.98043 0.605357 5.79289 0.792893C5.60536 0.98043 5.5 1.23478 5.5 1.5V3.5C5.5 3.76522 5.60536 4.01957 5.79289 4.20711C5.98043 4.39464 6.23478 4.5 6.5 4.5H7.5V5ZM9.5 1.5H6.5V3.5H9.5V1.5ZM2.5 8C2.5 7.86739 2.55268 7.74021 2.64645 7.64645C2.74021 7.55268 2.86739 7.5 3 7.5C3.13261 7.5 3.25979 7.55268 3.35355 7.64645C3.44732 7.74021 3.5 7.86739 3.5 8C3.5 8.13261 3.44732 8.25979 3.35355 8.35355C3.25979 8.44732 3.13261 8.5 3 8.5C2.86739 8.5 2.74021 8.44732 2.64645 8.35355C2.55268 8.25979 2.5 8.13261 2.5 8ZM3 9.5C2.68967 9.50016 2.38694 9.40407 2.13351 9.22497C1.88008 9.04587 1.68844 8.79258 1.585 8.5H1C0.867392 8.5 0.740215 8.44732 0.646447 8.35355C0.552678 8.25979 0.5 8.13261 0.5 8C0.5 7.86739 0.552678 7.74021 0.646447 7.64645C0.740215 7.55268 0.867392 7.5 1 7.5H1.585C1.68807 7.20701 1.87955 6.95323 2.13301 6.77371C2.38647 6.59419 2.6894 6.49777 3 6.49777C3.3106 6.49777 3.61353 6.59419 3.86699 6.77371C4.12045 6.95323 4.31193 7.20701 4.415 7.5H6.585C6.68807 7.20701 6.87955 6.95323 7.13301 6.77371C7.38647 6.59419 7.6894 6.49777 8 6.49777C8.3106 6.49777 8.61353 6.59419 8.86699 6.77371C9.12045 6.95323 9.31193 7.20701 9.415 7.5H11.585C11.6881 7.20701 11.8796 6.95323 12.133 6.77371C12.3865 6.59419 12.6894 6.49777 13 6.49777C13.3106 6.49777 13.6135 6.59419 13.867 6.77371C14.1204 6.95323 14.3119 7.20701 14.415 7.5H15C15.1326 7.5 15.2598 7.55268 15.3536 7.64645C15.4473 7.74021 15.5 7.86739 15.5 8C15.5 8.13261 15.4473 8.25979 15.3536 8.35355C15.2598 8.44732 15.1326 8.5 15 8.5H14.415C14.3119 8.79299 14.1204 9.04677 13.867 9.22629C13.6135 9.40581 13.3106 9.50223 13 9.50223C12.6894 9.50223 12.3865 9.40581 12.133 9.22629C11.8796 9.04677 11.6881 8.79299 11.585 8.5H9.415C9.31193 8.79299 9.12045 9.04677 8.86699 9.22629C8.61353 9.40581 8.3106 9.50223 8 9.50223C7.6894 9.50223 7.38647 9.40581 7.13301 9.22629C6.87955 9.04677 6.68807 8.79299 6.585 8.5H4.415C4.31156 8.79258 4.11992 9.04587 3.86649 9.22497C3.61306 9.40407 3.31033 9.50016 3 9.5ZM13.5 8C13.5 7.86739 13.4473 7.74021 13.3536 7.64645C13.2598 7.55268 13.1326 7.5 13 7.5C12.8674 7.5 12.7402 7.55268 12.6464 7.64645C12.5527 7.74021 12.5 7.86739 12.5 8C12.5 8.13261 12.5527 8.25979 12.6464 8.35355C12.7402 8.44732 12.8674 8.5 13 8.5C13.1326 8.5 13.2598 8.44732 13.3536 8.35355C13.4473 8.25979 13.5 8.13261 13.5 8ZM8.5 8C8.5 7.86739 8.44732 7.74021 8.35355 7.64645C8.25979 7.55268 8.13261 7.5 8 7.5C7.86739 7.5 7.74021 7.55268 7.64645 7.64645C7.55268 7.74021 7.5 7.86739 7.5 8C7.5 8.13261 7.55268 8.25979 7.64645 8.35355C7.74021 8.44732 7.86739 8.5 8 8.5C8.13261 8.5 8.25979 8.44732 8.35355 8.35355C8.44732 8.25979 8.5 8.13261 8.5 8ZM3 10.5C2.86739 10.5 2.74021 10.5527 2.64645 10.6464C2.55268 10.7402 2.5 10.8674 2.5 11V11.5H1.5C1.23478 11.5 0.98043 11.6054 0.792893 11.7929C0.605357 11.9804 0.5 12.2348 0.5 12.5L0.5 14.5C0.5 14.7652 0.605357 15.0196 0.792893 15.2071C0.98043 15.3946 1.23478 15.5 1.5 15.5H4.5C4.76522 15.5 5.01957 15.3946 5.20711 15.2071C5.39464 15.0196 5.5 14.7652 5.5 14.5V12.5C5.5 12.2348 5.39464 11.9804 5.20711 11.7929C5.01957 11.6054 4.76522 11.5 4.5 11.5H3.5V11C3.5 10.8674 3.44732 10.7402 3.35355 10.6464C3.25979 10.5527 3.13261 10.5 3 10.5ZM4.5 14.5V12.5H1.5V14.5H4.5ZM12.5 11C12.5 10.8674 12.5527 10.7402 12.6464 10.6464C12.7402 10.5527 12.8674 10.5 13 10.5C13.1326 10.5 13.2598 10.5527 13.3536 10.6464C13.4473 10.7402 13.5 10.8674 13.5 11V11.5H14.5C14.7652 11.5 15.0196 11.6054 15.2071 11.7929C15.3946 11.9804 15.5 12.2348 15.5 12.5V14.5C15.5 14.7652 15.3946 15.0196 15.2071 15.2071C15.0196 15.3946 14.7652 15.5 14.5 15.5H11.5C11.2348 15.5 10.9804 15.3946 10.7929 15.2071C10.6054 15.0196 10.5 14.7652 10.5 14.5V12.5C10.5 12.2348 10.6054 11.9804 10.7929 11.7929C10.9804 11.6054 11.2348 11.5 11.5 11.5H12.5V11ZM14.5 13.5V14.5H11.5V12.5H14.5V13.5Z" fill="black"/>
</g>
<defs>
<clipPath id="clip0_147_153">
<rect width="16" height="16" fill="white" transform="translate(0.5 0.5)"/>
</clipPath>
</defs>
</svg>
