<svg width="31" height="33" viewBox="0 0 31 33" fill="none" xmlns="http://www.w3.org/2000/svg">
<rect width="31" height="33" rx="8" fill="#9042F1"/>
<path d="M11.9375 10.5625C11.5163 10.5624 11.1027 10.6743 10.739 10.8867C10.3753 11.0991 10.0747 11.4044 9.86788 11.7713C9.66106 12.1382 9.55554 12.5535 9.56211 12.9746C9.56869 13.3957 9.68713 13.8075 9.9053 14.1678C9.36343 14.2725 8.87492 14.5625 8.52364 14.9882C8.17236 15.4138 7.98022 15.9485 7.98022 16.5004C7.98022 17.0523 8.17236 17.587 8.52364 18.0126C8.87492 18.4383 9.36343 18.7283 9.9053 18.833M11.9375 10.5625C11.9375 10.0376 12.146 9.53418 12.5172 9.16302C12.8884 8.79185 13.3918 8.58333 13.9167 8.58333C14.4416 8.58333 14.945 8.79185 15.3162 9.16302C15.6873 9.53418 15.8958 10.0376 15.8958 10.5625V11.75M11.9375 10.5625C11.9375 11.2101 12.2486 11.7848 12.7292 12.1458M9.9053 18.833C9.68733 19.1933 9.56906 19.605 9.56258 20.026C9.55611 20.447 9.66168 20.8621 9.86847 21.2289C10.0753 21.5957 10.3758 21.9009 10.7394 22.1133C11.103 22.3256 11.5165 22.4375 11.9375 22.4375C11.9376 22.9624 12.1462 23.4658 12.5175 23.8369C12.8887 24.208 13.3922 24.4164 13.9171 24.4163C14.442 24.4162 14.9453 24.2075 15.3164 23.8363C15.6875 23.4651 15.8959 22.9616 15.8958 22.4367V21.25M9.9053 18.833C10.1894 18.3627 10.6278 18.0054 11.1458 17.8221M17.875 18.875V20.4583M20.25 18.875V20.4583M17.875 12.5417V14.125M20.25 12.5417V14.125M16.6875 15.3125H15.1042M16.6875 17.6875H15.1042M23.0208 15.3125H21.4375M23.0208 17.6875H21.4375M19.8542 14.125H18.2708C17.5243 14.125 17.1514 14.125 16.9195 14.357C16.6875 14.5889 16.6875 14.9618 16.6875 15.7083V17.2917C16.6875 18.0382 16.6875 18.4111 16.9195 18.643C17.1514 18.875 17.5243 18.875 18.2708 18.875H19.8542C20.6007 18.875 20.9736 18.875 21.2055 18.643C21.4375 18.4111 21.4375 18.0382 21.4375 17.2917V15.7083C21.4375 14.9618 21.4375 14.5889 21.2055 14.357C20.9736 14.125 20.6007 14.125 19.8542 14.125Z" stroke="white" stroke-linecap="round" stroke-linejoin="round"/>
</svg>
