<svg width="16" height="16" viewBox="0 0 16 16" fill="none" xmlns="http://www.w3.org/2000/svg">
<path fill-rule="evenodd" clip-rule="evenodd" d="M7.99985 14C8.19876 14 8.38952 13.921 8.53018 13.7803C8.67083 13.6397 8.74985 13.4489 8.74985 13.25V4.56001L9.96985 5.78001C10.0385 5.8537 10.1213 5.9128 10.2133 5.95379C10.3053 5.99478 10.4046 6.01683 10.5053 6.0186C10.606 6.02038 10.7061 6.00186 10.7994 5.96413C10.8928 5.92641 10.9777 5.87027 11.0489 5.79905C11.1201 5.72783 11.1762 5.643 11.214 5.54961C11.2517 5.45622 11.2702 5.35619 11.2684 5.25549C11.2667 5.15479 11.2446 5.05547 11.2036 4.96347C11.1626 4.87147 11.1035 4.78867 11.0298 4.72001L8.52985 2.22001C8.38922 2.07956 8.1986 2.00067 7.99985 2.00067C7.8011 2.00067 7.61047 2.07956 7.46985 2.22001L4.96985 4.72001C4.83737 4.86219 4.76524 5.05023 4.76867 5.24453C4.7721 5.43884 4.85081 5.62422 4.98822 5.76163C5.12564 5.89905 5.31102 5.97776 5.50532 5.98119C5.69963 5.98461 5.88767 5.91249 6.02985 5.78001L7.24985 4.56001V13.25C7.24985 13.664 7.58585 14 7.99985 14Z" fill="white"/>
</svg>
