<svg width="16" height="17" viewBox="0 0 16 17" fill="none" xmlns="http://www.w3.org/2000/svg">
<g clip-path="url(#clip0_94_881)">
<path d="M4.4445 8.5C4.4445 7.92222 4.08894 7.43333 3.55561 7.25555V5.74444C4.08894 5.56666 4.4445 5.07778 4.4445 4.5C4.4445 3.74444 3.86672 3.16666 3.11117 3.16666C2.35561 3.16666 1.77783 3.74444 1.77783 4.5C1.77783 5.07778 2.13339 5.56666 2.66672 5.74444V7.25555C2.13339 7.43333 1.77783 7.92222 1.77783 8.5C1.77783 9.07778 2.13339 9.56666 2.66672 9.74444V11.2556C2.13339 11.4333 1.77783 11.9222 1.77783 12.5C1.77783 13.2556 2.35561 13.8333 3.11117 13.8333C3.86672 13.8333 4.4445 13.2556 4.4445 12.5C4.4445 11.9222 4.08894 11.4333 3.55561 11.2556V9.74444C4.08894 9.56666 4.4445 9.07778 4.4445 8.5ZM13.7778 4.94444H6.66672C6.40005 4.94444 6.22228 4.76666 6.22228 4.5C6.22228 4.23333 6.40005 4.05555 6.66672 4.05555H13.7778C14.0445 4.05555 14.2223 4.23333 14.2223 4.5C14.2223 4.76666 14.0445 4.94444 13.7778 4.94444ZM13.7778 8.94444H6.66672C6.40005 8.94444 6.22228 8.76666 6.22228 8.5C6.22228 8.23333 6.40005 8.05555 6.66672 8.05555H13.7778C14.0445 8.05555 14.2223 8.23333 14.2223 8.5C14.2223 8.76666 14.0445 8.94444 13.7778 8.94444ZM13.7778 12.9444H6.66672C6.40005 12.9444 6.22228 12.7667 6.22228 12.5C6.22228 12.2333 6.40005 12.0556 6.66672 12.0556H13.7778C14.0445 12.0556 14.2223 12.2333 14.2223 12.5C14.2223 12.7667 14.0445 12.9444 13.7778 12.9444Z" fill="black"/>
</g>
<defs>
<clipPath id="clip0_94_881">
<rect width="16" height="16" fill="white" transform="translate(0 0.5)"/>
</clipPath>
</defs>
</svg>
