<svg width="16" height="16" viewBox="0 0 16 16" fill="none" xmlns="http://www.w3.org/2000/svg">
<path d="M14.6665 7.95932C14.6728 6.88635 14.5813 5.81503 14.3932 4.75866C14.31 4.47985 14.1553 4.22767 13.9444 4.0272C13.7336 3.82673 13.4739 3.68497 13.1912 3.61599C11.4633 3.4136 9.72416 3.3223 7.98454 3.34266C6.24521 3.32266 4.50654 3.41599 2.77921 3.62266C2.49879 3.69993 2.24324 3.84868 2.03757 4.05435C1.8319 4.26003 1.68315 4.51558 1.60588 4.79599C1.41788 5.85214 1.32683 6.92326 1.33388 7.99599C1.32721 9.06932 1.41854 10.14 1.60654 11.196C1.68517 11.4795 1.83575 11.7379 2.04367 11.946C2.25159 12.1542 2.50979 12.305 2.79321 12.384C4.52121 12.586 6.25988 12.6773 7.99988 12.6567C9.73445 12.6801 11.4687 12.5888 13.1912 12.3833C13.4713 12.3061 13.7266 12.1575 13.9322 11.9521C14.1377 11.7466 14.2865 11.4914 14.3639 11.2113C14.5685 10.1393 14.6705 9.04999 14.6665 7.95932ZM9.72587 8.34732L7.05588 9.86132C7.0021 9.89084 6.94157 9.90584 6.88024 9.90486C6.81891 9.90389 6.75889 9.88696 6.70609 9.85575C6.65328 9.82453 6.60951 9.78011 6.57908 9.72685C6.54865 9.67359 6.53261 9.61333 6.53254 9.55199V6.41066C6.53176 6.34911 6.54738 6.28846 6.5778 6.23494C6.60822 6.18142 6.65234 6.13697 6.70562 6.10615C6.75891 6.07534 6.81944 6.05926 6.881 6.05959C6.94255 6.05991 7.00291 6.07662 7.05588 6.10799L9.81388 7.69332C9.86704 7.72469 9.91086 7.76968 9.94082 7.82364C9.97078 7.87761 9.98578 7.93859 9.98429 8.0003C9.98279 8.062 9.96485 8.12219 9.93231 8.17464C9.89978 8.22709 9.85383 8.26991 9.79921 8.29866L9.72587 8.34732Z" fill="#CD201F"/>
</svg>
